# xmcd CD database file
#
# Track frame offsets:
#	150
#	12578
#	25409
#	35421
#	48862
#	60380
#	72678
#	84408
#	97434
#	110447
#	122812
#	134248
#	147298
#	161007
#	172382
#	184253
#	195975
#	209053
#	220896
#	232547
#	242625
#	253969
#	265194
#	281065
#
# Disc length: 3911 seconds
#
# Revision: 0
# Processed by: cddbd v1.5PL3 Copyright (c) Steve Scherf et al.
# Submitted via: CDex 1.50
#
DISCID=7b0f4518
DTITLE=John Lee Hooker - The Definitve Collection
DYEAR=2000
DGENRE=Blues
TTITLE0=Trouble Blues
TTITLE1=Baby Lee
TTITLE2=Dimples
TTITLE3=Every Night
TTITLE4=I Love You Honey
TTITLE5=I´m In The Mood
TTITLE6=Little Wheel
TTITLE7=I See You When You´re Weak
TTITLE8=I´m So Exited
TTITLE9=Crawlin´ Kingsnake
TTITLE10=Wheel And Deal
TTITLE11=I´m Going Upstairs
TTITLE12=The Road Is So Rough
TTITLE13=Boom Boom
TTITLE14=I´m Mad Again
TTITLE15=Boogie Chillun
TTITLE16=Don´t Look Back
TTITLE17=Mama You Got A Daughter
TTITLE18=Solid Sender
TTITLE19=Want A Blues
TTITLE20=Hard Headed Woman
TTITLE21=This Is Hip
TTITLE22=It Serves Me Right To Suffer
TTITLE23=She´s Long, She´s Tall
EXTD=YEAR: 2000
EXTT0=
EXTT1=
EXTT2=
EXTT3=
EXTT4=
EXTT5=
EXTT6=
EXTT7=
EXTT8=
EXTT9=
EXTT10=
EXTT11=
EXTT12=
EXTT13=
EXTT14=
EXTT15=
EXTT16=
EXTT17=
EXTT18=
EXTT19=
EXTT20=
EXTT21=
EXTT22=
EXTT23=
PLAYORDER=
